<?xml version="1.0" encoding="utf-8"?>
<!-- Generator: Adobe Illustrator 16.0.0, SVG Export Plug-In . SVG Version: 6.00 Build 0)  -->
<!DOCTYPE svg PUBLIC "-//W3C//DTD SVG 1.1//EN" "http://www.w3.org/Graphics/SVG/1.1/DTD/svg11.dtd">
<svg version="1.1" xmlns="http://www.w3.org/2000/svg" xmlns:xlink="http://www.w3.org/1999/xlink" x="0px" y="0px" width="20px"
	 height="26px" viewBox="0 0 20 26" enable-background="new 0 0 20 26" xml:space="preserve">
<g id="marker">
	<linearGradient id="SVGID_1_" gradientUnits="userSpaceOnUse" x1="9.9995" y1="0" x2="9.9995" y2="26.0005">
		<stop  offset="0" style="stop-color:#F1F1EC"/>
		<stop  offset="1" style="stop-color:#DFE0E2"/>
	</linearGradient>
	<path fill="url(#SVGID_1_)" d="M20,10c0,5.522-10,16-10,16S0,15.522,0,10C0,4.477,4.477,0,10,0C15.522,0,20,4.477,20,10z"/>
</g>
<g id="dot">
	<circle fill="#434247" cx="10" cy="9" r="2.5"/>
</g>
<g id="moon">
	<path fill="#222224" d="M10,6.833c1.324,0,2.396,1.032,2.483,2.333C12.487,9.11,12.5,9.057,12.5,9c0-1.381-1.119-2.5-2.5-2.5
		S7.5,7.619,7.5,9c0,0.057,0.013,0.11,0.017,0.167C7.604,7.865,8.676,6.833,10,6.833z"/>
</g>
</svg>
